<svg width="1346" height="431" viewBox="0 0 1346 431" fill="none" xmlns="http://www.w3.org/2000/svg">
<path d="M1311.66 156.125C1357.45 182.54 1357.45 248.46 1311.66 274.875L1057.22 421.678C1011.37 448.133 954 415.133 954 362.302V68.6975C954 15.8666 1011.37 -17.1328 1057.22 9.32223L1311.66 156.125Z" fill="#C3E9C2"/>
<path d="M104.656 150.179C104.656 166.474 99.869 179.576 90.2948 189.485C80.7206 199.394 67.4597 204.348 50.5123 204.348H0V185.521H11.5551V115.827H0V97H49.1917C67.5698 97 81.3809 101.899 90.6249 111.698C99.9791 121.497 104.656 134.324 104.656 150.179ZM80.8857 150.509C80.8857 127.388 70.1559 115.827 48.6965 115.827H33.6748V185.521H48.6965C59.041 185.521 66.9645 182.769 72.4669 177.264C78.0794 171.759 80.8857 162.84 80.8857 150.509Z" fill="black"/>
<path d="M191.855 167.189C191.855 178.97 188.003 188.384 180.299 195.43C172.596 202.477 162.802 206 150.916 206C139.471 206 130.117 202.697 122.854 196.091C115.701 189.375 112.124 180.016 112.124 168.015C112.124 157.115 115.426 147.757 122.029 139.939C128.632 132.122 138.646 128.214 152.072 128.214C165.498 128.214 175.457 132.122 181.95 139.939C188.553 147.646 191.855 156.73 191.855 167.189ZM169.9 166.529C169.9 158.932 168.139 153.372 164.618 149.848C161.096 146.325 156.804 144.564 151.742 144.564C146.239 144.564 141.893 146.545 138.701 150.509C135.62 154.363 134.079 159.813 134.079 166.859C134.079 173.245 135.51 178.64 138.371 183.044C141.342 187.448 145.744 189.65 151.577 189.65C157.079 189.65 161.481 187.613 164.783 183.539C168.194 179.356 169.9 173.685 169.9 166.529Z" fill="black"/>
<path d="M317.428 145.885H310.66L290.522 204.348H274.675L255.361 159.758H254.371L236.873 204.348H221.851L201.217 145.885H194.449V129.865H234.067V145.885H223.832L232.911 174.952H233.902L251.399 129.865H264.11L284.414 174.291H285.404L291.512 145.885H281.773V129.865H317.428V145.885Z" fill="black"/>
<path d="M414.618 204.348H373.515V188.329H383.419V162.4C383.419 156.014 382.318 151.445 380.117 148.692C378.026 145.94 374.89 144.564 370.708 144.564C365.646 144.564 361.739 146.16 358.988 149.353C356.237 152.436 354.806 156.51 354.696 161.574V188.329H364.601V204.348H323.497V188.329H333.402V146.05H322.672V129.865H354.696V141.261C359.648 132.673 367.627 128.379 378.632 128.379C385.675 128.379 391.783 130.471 396.955 134.655C402.127 138.838 404.713 145.334 404.713 154.142V188.329H414.618V204.348Z" fill="black"/>
<path d="M483.581 181.227C482.48 189.815 479.509 196.091 474.667 200.055C469.825 204.018 463.552 206 455.848 206C447.595 206 440.882 203.963 435.71 199.889C430.647 195.706 428.116 189.76 428.116 182.053V145.059H417.552V129.865H428.116V107.239H449.411V129.865H476.152V145.059H449.411V178.42C449.411 184.916 452.382 188.164 458.325 188.164C459.645 188.164 461.406 187.613 463.607 186.512C465.918 185.301 467.404 181.943 468.064 176.438L483.581 181.227Z" fill="black"/>
<path d="M565.364 167.189C565.364 178.97 561.512 188.384 553.809 195.43C546.105 202.477 536.311 206 524.426 206C512.981 206 503.627 202.697 496.363 196.091C489.21 189.375 485.634 180.016 485.634 168.015C485.634 157.115 488.935 147.757 495.538 139.939C502.141 132.122 512.155 128.214 525.581 128.214C539.007 128.214 548.967 132.122 555.459 139.939C562.062 147.646 565.364 156.73 565.364 167.189ZM543.409 166.529C543.409 158.932 541.648 153.372 538.127 149.848C534.605 146.325 530.313 144.564 525.251 144.564C519.749 144.564 515.402 146.545 512.21 150.509C509.129 154.363 507.588 159.813 507.588 166.859C507.588 173.245 509.019 178.64 511.88 183.044C514.852 187.448 519.254 189.65 525.086 189.65C530.589 189.65 534.99 187.613 538.292 183.539C541.703 179.356 543.409 173.685 543.409 166.529Z" fill="black"/>
<path d="M690.938 145.885H684.17L664.031 204.348H648.184L628.87 159.758H627.88L610.382 204.348H595.361L574.727 145.885H567.959V129.865H607.576V145.885H597.342L606.421 174.952H607.411L624.909 129.865H637.619L657.923 174.291H658.914L665.021 145.885H655.282V129.865H690.938V145.885Z" fill="black"/>
<path d="M788.127 204.348H747.024V188.329H756.928V162.4C756.928 156.014 755.828 151.445 753.627 148.692C751.536 145.94 748.399 144.564 744.218 144.564C739.155 144.564 735.249 146.16 732.497 149.353C729.746 152.436 728.316 156.51 728.206 161.574V188.329H738.11V204.348H697.007V188.329H706.911V146.05H696.181V129.865H728.206V141.261C733.158 132.673 741.136 128.379 752.141 128.379C759.184 128.379 765.292 130.471 770.464 134.655C775.636 138.838 778.223 145.334 778.223 154.142V188.329H788.127V204.348Z" fill="black"/>
<path d="M910.165 204.348H827.298V185.521H838.853V115.827H827.298V97H909.174L912.476 128.379L893.657 130.03L890.356 115.827H860.973V141.095H906.203V159.758H860.973V185.521H891.346L894.648 171.318L913.466 172.97L910.165 204.348Z" fill="black"/>
<path d="M929.936 135.15C936.429 132.508 941.821 130.746 946.113 129.865C950.515 128.874 955.742 128.379 961.795 128.379C969.829 128.379 976.762 130.471 982.594 134.655C988.427 138.838 991.343 145.169 991.343 153.647V186.017C991.343 189.87 993.049 191.797 996.46 191.797C997.451 191.797 998.496 191.632 999.597 191.302L999.762 202.532C995.47 204.844 991.013 206 986.391 206C976.597 206 971.149 201.101 970.049 191.302V191.136C967.958 194.88 964.932 198.293 960.97 201.376C957.118 204.459 952.166 206 946.113 206C940.721 206 935.549 204.404 930.596 201.211C925.644 198.018 923.168 192.513 923.168 184.695C923.168 175.557 926.8 169.502 934.063 166.529C941.436 163.556 949.36 162.07 957.833 162.07C962.565 162.07 966.637 162.29 970.049 162.73V160.253C970.049 156.399 969.498 152.656 968.398 149.023C967.408 145.389 963.886 143.573 957.833 143.573C955.632 143.573 953.596 143.738 951.726 144.068C949.965 144.288 948.204 144.839 946.443 145.72L943.637 156.289L926.635 154.473L929.936 135.15ZM970.049 173.961V172.97C968.288 172.749 966.472 172.529 964.601 172.309C962.841 172.089 961.08 171.979 959.319 171.979C955.577 171.979 952.276 172.694 949.415 174.126C946.553 175.447 945.123 178.144 945.123 182.218C945.123 184.64 945.783 186.677 947.104 188.329C948.424 189.98 950.68 190.806 953.872 190.806C957.613 190.806 961.08 189.485 964.271 186.842C967.573 184.09 969.498 179.796 970.049 173.961Z" fill="black"/>
<path d="M1074.02 181.558C1074.02 189.815 1070.72 195.981 1064.12 200.055C1057.62 204.018 1049.15 206 1038.7 206C1033.3 206 1027.86 205.449 1022.35 204.348C1016.96 203.137 1011.79 201.266 1006.84 198.733L1009.81 177.924L1026.32 179.741V188.989C1028.3 189.65 1030.39 190.09 1032.59 190.311C1034.79 190.421 1036.44 190.476 1037.54 190.476C1041.61 190.476 1045.13 189.815 1048.1 188.494C1051.08 187.173 1052.56 185.191 1052.56 182.548C1052.56 179.356 1050.31 177.264 1045.79 176.273C1041.28 175.282 1036.05 174.291 1030.11 173.3C1024.17 172.309 1018.94 170.272 1014.43 167.189C1009.92 164.107 1007.66 158.877 1007.66 151.5C1007.66 142.362 1011.18 136.251 1018.23 133.168C1025.38 129.975 1032.75 128.379 1040.35 128.379C1050.25 128.379 1059.55 130.636 1068.24 135.15L1070.06 154.142L1053.55 155.959L1052.23 145.555C1048.6 144.343 1044.69 143.738 1040.51 143.738C1037.76 143.738 1035.39 144.343 1033.41 145.555C1031.54 146.656 1030.61 148.417 1030.61 150.839C1030.61 154.032 1032.75 156.179 1037.05 157.28C1041.45 158.271 1046.51 159.262 1052.23 160.253C1058.06 161.244 1063.13 163.281 1067.42 166.364C1071.82 169.336 1074.02 174.401 1074.02 181.558Z" fill="black"/>
<path d="M1145 181.227C1143.9 189.815 1140.93 196.091 1136.09 200.055C1131.24 204.018 1124.97 206 1117.27 206C1109.01 206 1102.3 203.963 1097.13 199.889C1092.07 195.706 1089.54 189.76 1089.54 182.053V145.059H1078.97V129.865H1089.54V107.239H1110.83V129.865H1137.57V145.059H1110.83V178.42C1110.83 184.916 1113.8 188.164 1119.74 188.164C1121.06 188.164 1122.83 187.613 1125.03 186.512C1127.34 185.301 1128.82 181.943 1129.48 176.438L1145 181.227Z" fill="black"/>
<path d="M183.413 346.092C182.236 346.092 181.177 345.68 180.236 344.856C179.412 344.032 179 343.031 179 341.854V221.947C179 219.71 180.059 218.297 182.178 217.708C184.296 217.12 186.002 217.767 187.297 219.651C198.242 237.075 207.598 251.968 215.366 264.329C223.251 276.691 229.723 286.933 234.784 295.056C239.962 303.18 244.023 309.596 246.965 314.305C249.907 318.897 251.966 322.134 253.143 324.018C254.32 325.901 254.909 326.843 254.909 326.843V221.947C254.909 220.769 255.379 219.769 256.321 218.945C257.262 218.003 258.322 217.532 259.498 217.532C260.675 217.532 261.676 218.003 262.5 218.945C263.323 219.769 263.735 220.769 263.735 221.947V341.854C263.735 343.973 262.735 345.327 260.734 345.915C258.616 346.504 256.909 345.915 255.615 344.149C244.67 326.726 235.314 311.833 227.546 299.471C219.779 287.11 213.306 276.867 208.128 268.744C202.949 260.621 198.889 254.263 195.947 249.672C193.005 244.963 190.886 241.666 189.592 239.783C188.415 237.899 187.827 236.957 187.827 236.957V341.854C187.827 343.031 187.415 344.032 186.591 344.856C185.767 345.68 184.708 346.092 183.413 346.092Z" fill="black"/>
<path d="M317.729 346.092C307.726 346.092 299.841 342.678 294.074 335.85C288.307 328.904 285.424 319.544 285.424 307.771C285.424 295.881 288.307 286.521 294.074 279.693C299.841 272.865 307.726 269.45 317.729 269.45C326.438 269.45 333.735 272.452 339.619 278.457C345.621 284.461 348.858 292.584 349.328 302.827V303.356C349.328 304.416 348.916 305.358 348.093 306.182C347.386 307.006 346.386 307.418 345.092 307.418H293.897C293.897 316.483 295.78 323.782 299.546 329.316C303.43 334.849 309.491 337.615 317.729 337.615C321.966 337.615 325.908 336.732 329.557 334.967C333.323 333.083 336.206 330.669 338.207 327.726C338.913 326.784 339.796 326.196 340.855 325.96C342.032 325.725 343.091 325.96 344.032 326.667C344.974 327.255 345.562 328.138 345.798 329.316C346.033 330.493 345.798 331.552 345.092 332.494C342.267 336.615 338.383 339.911 333.44 342.383C328.615 344.856 323.378 346.092 317.729 346.092ZM294.427 299.118H340.149C338.972 292.408 336.383 287.227 332.381 283.578C328.498 279.928 323.614 278.103 317.729 278.103C311.374 278.103 306.196 279.928 302.194 283.578C298.311 287.227 295.721 292.408 294.427 299.118Z" fill="black"/>
<path d="M391.315 346.269C390.138 346.269 389.138 345.856 388.314 345.032C387.608 344.326 387.255 343.384 387.255 342.207V280.576H366.954C365.777 280.576 364.777 280.164 363.953 279.34C363.129 278.398 362.717 277.338 362.717 276.161C362.717 274.984 363.129 274.042 363.953 273.335C364.777 272.511 365.777 272.099 366.954 272.099H391.315C392.61 272.099 393.669 272.511 394.493 273.335C395.317 274.042 395.729 274.984 395.729 276.161V342.207C395.729 343.384 395.317 344.326 394.493 345.032C393.669 345.856 392.61 346.269 391.315 346.269ZM389.197 240.136C387.549 240.136 386.196 239.665 385.137 238.723C384.077 237.781 383.548 236.722 383.548 235.544V224.596C383.548 223.418 384.077 222.359 385.137 221.417C386.196 220.357 387.549 219.828 389.197 219.828C390.845 219.828 392.139 220.357 393.081 221.417C394.14 222.359 394.669 223.418 394.669 224.596V235.544C394.669 236.722 394.14 237.781 393.081 238.723C392.139 239.665 390.845 240.136 389.197 240.136Z" fill="black"/>
<path d="M450.67 383C444.432 383 439.019 381.293 434.429 377.879C429.957 374.582 426.779 369.873 424.896 363.751C424.543 362.692 424.602 361.632 425.073 360.573C425.544 359.631 426.367 358.983 427.544 358.63C428.721 358.159 429.78 358.218 430.722 358.807C431.781 359.395 432.487 360.219 432.84 361.279C435.547 370.109 441.49 374.524 450.67 374.524C456.672 374.524 461.38 372.346 464.792 367.99C468.323 363.634 470.088 357.688 470.088 350.154V326.49C464.91 332.023 457.614 334.79 448.198 334.79C438.666 334.79 431.134 331.847 425.602 325.96C420.071 320.074 417.305 312.127 417.305 302.12C417.305 292.113 420.071 284.225 425.602 278.457C431.134 272.57 438.666 269.627 448.198 269.627C457.731 269.627 465.028 272.452 470.088 278.103V273.689C470.088 272.511 470.5 271.511 471.324 270.687C472.148 269.745 473.148 269.274 474.325 269.274C475.502 269.274 476.444 269.745 477.15 270.687C477.974 271.511 478.385 272.511 478.385 273.689V350.154C478.385 359.807 475.855 367.695 470.795 373.817C465.734 379.939 459.026 383 450.67 383ZM448.198 326.49C455.142 326.49 460.556 324.489 464.439 320.486C468.323 316.365 470.265 310.243 470.265 302.12C470.265 294.115 468.323 288.11 464.439 284.108C460.556 280.105 455.142 278.103 448.198 278.103C441.02 278.103 435.429 280.223 431.428 284.461C427.544 288.581 425.602 294.468 425.602 302.12C425.602 309.89 427.544 315.894 431.428 320.133C435.429 324.371 441.02 326.49 448.198 326.49Z" fill="black"/>
<path d="M505.959 346.269C504.782 346.269 503.782 345.856 502.958 345.032C502.134 344.326 501.722 343.384 501.722 342.207V218.768C501.722 217.591 502.134 216.59 502.958 215.766C503.782 214.942 504.782 214.53 505.959 214.53C507.136 214.53 508.136 214.942 508.96 215.766C509.784 216.59 510.196 217.591 510.196 218.768V279.163C512.902 276.102 516.139 273.747 519.905 272.099C523.671 270.333 527.731 269.45 532.086 269.45C540.206 269.45 546.561 272.158 551.151 277.574C555.859 282.871 558.212 290.053 558.212 299.118V342.03C558.212 343.208 557.8 344.149 556.977 344.856C556.27 345.68 555.329 346.092 554.152 346.092C552.975 346.092 551.975 345.68 551.151 344.856C550.327 344.149 549.915 343.208 549.915 342.03V299.118C549.915 296.41 549.503 293.408 548.68 290.112C547.856 286.815 546.149 283.99 543.56 281.635C541.089 279.163 537.264 277.927 532.086 277.927C525.966 277.927 520.788 279.811 516.551 283.578C512.314 287.345 510.196 292.702 510.196 299.648V342.207C510.196 343.384 509.784 344.326 508.96 345.032C508.136 345.856 507.136 346.269 505.959 346.269Z" fill="black"/>
<path d="M585.777 346.269C584.601 346.269 583.6 345.856 582.776 345.032C581.953 344.326 581.541 343.384 581.541 342.207V218.415C581.541 217.238 581.953 216.237 582.776 215.413C583.6 214.471 584.601 214 585.777 214C586.954 214 587.955 214.471 588.778 215.413C589.602 216.237 590.014 217.238 590.014 218.415V280.929C592.721 277.515 596.016 274.748 599.9 272.629C603.784 270.51 608.315 269.45 613.493 269.45C623.379 269.45 631.205 272.865 636.972 279.693C642.738 286.521 645.622 295.881 645.622 307.771C645.622 319.544 642.738 328.904 636.972 335.85C631.205 342.678 623.379 346.092 613.493 346.092C608.315 346.092 603.784 345.091 599.9 343.09C596.016 340.971 592.721 338.204 590.014 334.79V342.207C590.014 343.384 589.602 344.326 588.778 345.032C587.955 345.856 586.954 346.269 585.777 346.269ZM613.493 337.615C621.025 337.615 626.85 335.025 630.97 329.845C635.089 324.665 637.148 317.307 637.148 307.771C637.148 298.353 635.089 291.054 630.97 285.874C626.85 280.693 621.025 278.103 613.493 278.103C605.843 278.103 600.018 280.693 596.016 285.874C592.133 291.054 590.191 298.353 590.191 307.771C590.191 317.307 592.133 324.665 596.016 329.845C600.018 335.025 605.843 337.615 613.493 337.615Z" fill="black"/>
<path d="M692.859 346.092C682.856 346.092 674.971 342.678 669.204 335.85C663.437 328.904 660.554 319.544 660.554 307.771C660.554 295.881 663.437 286.521 669.204 279.693C674.971 272.865 682.856 269.45 692.859 269.45C702.745 269.45 710.571 272.865 716.338 279.693C722.222 286.521 725.164 295.881 725.164 307.771C725.164 319.544 722.222 328.904 716.338 335.85C710.571 342.678 702.745 346.092 692.859 346.092ZM692.859 337.615C700.509 337.615 706.393 335.025 710.512 329.845C714.631 324.665 716.691 317.307 716.691 307.771C716.691 298.353 714.631 291.054 710.512 285.874C706.393 280.693 700.509 278.103 692.859 278.103C685.327 278.103 679.443 280.693 675.206 285.874C670.969 291.054 668.851 298.353 668.851 307.771C668.851 317.307 670.969 324.665 675.206 329.845C679.443 335.025 685.327 337.615 692.859 337.615Z" fill="black"/>
<path d="M747.754 346.092C746.577 346.092 745.576 345.68 744.753 344.856C743.929 344.032 743.517 343.09 743.517 342.03V273.865C743.517 272.688 743.929 271.687 744.753 270.863C745.576 270.039 746.577 269.627 747.754 269.627C748.93 269.627 749.872 270.039 750.578 270.863C751.402 271.687 751.814 272.688 751.814 273.865V278.28C753.579 276.161 756.051 274.336 759.228 272.806C762.406 271.157 765.466 270.098 768.408 269.627C772.527 269.038 776.705 269.391 780.942 270.687C785.178 271.864 788.944 273.924 792.24 276.867C795.652 279.811 798.006 283.696 799.301 288.522C799.654 289.582 799.536 290.642 798.948 291.701C798.359 292.643 797.536 293.29 796.476 293.644C795.299 293.879 794.181 293.703 793.122 293.114C792.181 292.525 791.592 291.701 791.357 290.642C790.415 287.227 788.768 284.52 786.414 282.518C784.06 280.517 781.353 279.163 778.294 278.457C775.351 277.75 772.468 277.633 769.643 278.103C764.583 278.692 760.346 280.576 756.933 283.754C753.52 286.933 751.814 291.995 751.814 298.941V342.03C751.814 343.09 751.402 344.032 750.578 344.856C749.872 345.68 748.93 346.092 747.754 346.092Z" fill="black"/>
<path d="M823.509 346.269C822.332 346.269 821.332 345.856 820.508 345.032C819.684 344.326 819.272 343.384 819.272 342.207V218.768C819.272 217.591 819.684 216.59 820.508 215.766C821.332 214.942 822.332 214.53 823.509 214.53C824.686 214.53 825.686 214.942 826.51 215.766C827.334 216.59 827.746 217.591 827.746 218.768V279.163C830.453 276.102 833.689 273.747 837.455 272.099C841.221 270.333 845.281 269.45 849.636 269.45C857.756 269.45 864.111 272.158 868.701 277.574C873.409 282.871 875.763 290.053 875.763 299.118V342.03C875.763 343.208 875.351 344.149 874.527 344.856C873.821 345.68 872.879 346.092 871.702 346.092C870.525 346.092 869.525 345.68 868.701 344.856C867.877 344.149 867.466 343.208 867.466 342.03V299.118C867.466 296.41 867.054 293.408 866.23 290.112C865.406 286.815 863.699 283.99 861.11 281.635C858.639 279.163 854.814 277.927 849.636 277.927C843.516 277.927 838.338 279.811 834.101 283.578C829.864 287.345 827.746 292.702 827.746 299.648V342.207C827.746 343.384 827.334 344.326 826.51 345.032C825.686 345.856 824.686 346.269 823.509 346.269Z" fill="black"/>
<path d="M926.453 346.092C916.45 346.092 908.565 342.678 902.798 335.85C897.031 328.904 894.148 319.544 894.148 307.771C894.148 295.881 897.031 286.521 902.798 279.693C908.565 272.865 916.45 269.45 926.453 269.45C936.339 269.45 944.165 272.865 949.932 279.693C955.816 286.521 958.759 295.881 958.759 307.771C958.759 319.544 955.816 328.904 949.932 335.85C944.165 342.678 936.339 346.092 926.453 346.092ZM926.453 337.615C934.103 337.615 939.987 335.025 944.107 329.845C948.226 324.665 950.285 317.307 950.285 307.771C950.285 298.353 948.226 291.054 944.107 285.874C939.987 280.693 934.103 278.103 926.453 278.103C918.921 278.103 913.037 280.693 908.8 285.874C904.563 291.054 902.445 298.353 902.445 307.771C902.445 317.307 904.563 324.665 908.8 329.845C913.037 335.025 918.921 337.615 926.453 337.615Z" fill="black"/>
<path d="M1005.93 346.092C995.924 346.092 988.039 342.678 982.272 335.85C976.505 328.904 973.622 319.544 973.622 307.771C973.622 295.881 976.505 286.521 982.272 279.693C988.039 272.865 995.924 269.45 1005.93 269.45C1015.81 269.45 1023.64 272.865 1029.41 279.693C1035.29 286.521 1038.23 295.881 1038.23 307.771C1038.23 319.544 1035.29 328.904 1029.41 335.85C1023.64 342.678 1015.81 346.092 1005.93 346.092ZM1005.93 337.615C1013.58 337.615 1019.46 335.025 1023.58 329.845C1027.7 324.665 1029.76 317.307 1029.76 307.771C1029.76 298.353 1027.7 291.054 1023.58 285.874C1019.46 280.693 1013.58 278.103 1005.93 278.103C998.395 278.103 992.511 280.693 988.274 285.874C984.037 291.054 981.919 298.353 981.919 307.771C981.919 317.307 984.037 324.665 988.274 329.845C992.511 335.025 998.395 337.615 1005.93 337.615Z" fill="black"/>
<path d="M1112.76 346.269C1111.59 346.269 1110.59 345.856 1109.76 345.032C1109.06 344.326 1108.7 343.384 1108.7 342.207V334.79C1106 338.204 1102.7 340.971 1098.82 343.09C1094.93 345.091 1090.46 346.092 1085.4 346.092C1075.4 346.092 1067.51 342.678 1061.75 335.85C1055.98 328.904 1053.1 319.544 1053.1 307.771C1053.1 295.881 1055.98 286.521 1061.75 279.693C1067.51 272.865 1075.4 269.45 1085.4 269.45C1090.46 269.45 1094.93 270.51 1098.82 272.629C1102.7 274.748 1106 277.515 1108.7 280.929V218.945C1108.7 217.767 1109.06 216.767 1109.76 215.943C1110.59 215.118 1111.59 214.706 1112.76 214.706C1113.94 214.706 1114.94 215.118 1115.76 215.943C1116.59 216.767 1117 217.767 1117 218.945V342.207C1117 343.384 1116.59 344.326 1115.76 345.032C1114.94 345.856 1113.94 346.269 1112.76 346.269ZM1085.4 337.615C1092.93 337.615 1098.7 335.025 1102.7 329.845C1106.7 324.665 1108.7 317.307 1108.7 307.771C1108.7 298.353 1106.7 291.054 1102.7 285.874C1098.7 280.693 1092.93 278.103 1085.4 278.103C1077.87 278.103 1071.98 280.693 1067.75 285.874C1063.51 291.054 1061.39 298.353 1061.39 307.771C1061.39 317.307 1063.51 324.665 1067.75 329.845C1071.98 335.025 1077.87 337.615 1085.4 337.615Z" fill="black"/>
</svg>
